<svg xmlns="http://www.w3.org/2000/svg" xmlns:xlink="http://www.w3.org/1999/xlink" viewBox="0 0 584.57 424.57"><defs><style>.cls-1,.cls-4,.cls-5{fill:none;}.cls-2{clip-path:url(#clip-path);}.cls-3{fill:#1f1f1f;}.cls-4,.cls-5{stroke:#333;stroke-miterlimit:10;}.cls-4{stroke-width:2px;}.cls-6{fill:#e9b16d;}.cls-7{fill:#ffc98f;}.cls-8{fill:url(#linear-gradient);}.cls-9{fill:url(#linear-gradient-2);}.cls-10{clip-path:url(#clip-path-2);}.cls-11{fill:#73c69c;}.cls-12{fill:#fff;}</style><clipPath id="clip-path"><polygon class="cls-1" points="570.96 287.29 258.07 287.29 6.96 287.29 6.96 197.93 6.96 21.29 238.7 21.29 475.96 21.29 570.96 21.29 570.96 287.29"/></clipPath><linearGradient id="linear-gradient" x1="288.96" y1="203.28" x2="288.96" y2="287.28" gradientUnits="userSpaceOnUse"><stop offset="0" stop-color="#1f1f1f" stop-opacity="0"/><stop offset="1" stop-color="#1f1f1f"/></linearGradient><linearGradient id="linear-gradient-2" x1="217.96" y1="199.28" x2="217.96" y2="251.28" gradientTransform="translate(71 -178)" xlink:href="#linear-gradient"/><clipPath id="clip-path-2"><rect class="cls-1" x="211.25" y="185.78" width="179.23" height="115.97"/></clipPath></defs><title>location</title><g id="Layer_2" data-name="Layer 2"><g id="Layer_2-2" data-name="Layer 2"><g class="cls-2"><polygon class="cls-3" points="570.96 400.29 258.07 400.29 6.96 400.29 6.96 269.95 6.96 12.29 238.7 12.29 475.96 12.29 570.96 12.29 570.96 400.29"/><polyline class="cls-4" points="8.96 269.29 27.96 264.29 48.96 276.29 208.46 228.78 218.46 227.78 226.39 225.14 239.46 220.78"/><path class="cls-4" d="M241.46,223.78l94-28a121,121,0,0,0,29,4l60-20c6.73-13.43,16.39-19.91,30-17L572,126.51"/><polyline class="cls-4" points="0.96 195.28 90.96 169.28 98.96 168.28 213.96 136.28 265.96 305.29 295.96 375.29"/><polyline class="cls-4" points="489.46 61.78 387.46 91.78 323.46 110.78 303.46 110.78 278.96 118.28 268.96 120.28 213.96 136.28 208.96 125.28"/><polyline class="cls-4" points="269.96 120.28 295.96 204.28 299.96 214.28 313.96 265.29 313.96 274.29"/><polyline class="cls-4" points="250.96 125.28 262.96 161.28 265.96 169.28 269.96 184.28 274.96 198.28 278.73 212.69 286.46 235.78 304.38 230.39"/><polyline class="cls-4" points="283.51 226.99 291.96 224.28 290.96 218.28 300.24 215.3"/><polyline class="cls-4" points="287.46 217.78 288.46 218.78 291.04 218.78"/><polyline class="cls-4" points="232.46 196.78 272.96 185.28 290.96 179.28 312.96 173.28 323.46 170.78"/><polyline class="cls-4" points="260.46 122.78 269.14 149.93 273.46 162.78"/><line class="cls-4" x1="278.17" y1="146.81" x2="269.46" y2="149.78"/><line class="cls-4" x1="276.24" y1="140.57" x2="267.2" y2="143.57"/><line class="cls-4" x1="274.19" y1="133.96" x2="265.2" y2="137.01"/><line class="cls-4" x1="272.46" y1="127.78" x2="263.37" y2="131.02"/><polyline class="cls-4" points="226.23 176.16 313.96 150.28 358.96 137.28 391.46 126.78 437.46 113.78 500.46 94.78"/><line class="cls-4" x1="304.96" y1="110.78" x2="331.96" y2="196.28"/><path class="cls-4" d="M266.77,172.31l20.19-6,13-4a4.73,4.73,0,0,1,3,5l3.5,7.5"/><path class="cls-4" d="M266.46,172.78c-3.76,1.51-2.76,7.51,1,6"/><path class="cls-4" d="M260.83,188.73,265,203.28l4.25,12.24,7.25,23.26a93.88,93.88,0,0,1-18,11"/><polyline class="cls-4" points="237.29 212.12 275.45 200.15 293 194.71 328.26 184.58"/><polyline class="cls-4" points="251.55 207.65 255.35 219.65 263.58 247.19"/><line class="cls-4" x1="267.23" y1="209.82" x2="277.96" y2="206.28"/><line class="cls-4" x1="249.69" y1="252.41" x2="258.46" y2="249.78"/><line class="cls-4" x1="319.96" y1="272.28" x2="313.96" y2="265.28"/><polyline class="cls-4" points="313.38 274.48 348.96 264.29 391.96 251.28 424.46 241.78 471.46 227.78 535.46 208.78 571.96 198.21"/><polyline class="cls-4" points="343.66 235.05 420.96 212.28 463.96 200.28 473.96 197.28 495.96 196.28 571.96 173.06"/><polyline class="cls-4" points="383.46 92.97 410.76 184.35 418.6 212.98 426.78 241.09"/><polyline class="cls-4" points="351.07 102.59 378.9 194.97 386.96 222.3 395.46 250.26 411.62 305.06"/><polyline class="cls-5" points="326.5 179 348.96 171.28 363.96 166.28 370 165.43 387.96 159.28 397.19 188.87"/><line class="cls-5" x1="387.96" y1="159.28" x2="379.74" y2="130.57"/><line class="cls-5" x1="357.99" y1="230.83" x2="366.96" y2="259.28"/><polyline class="cls-5" points="394.36 220.12 402.85 248.1 413.74 245.06 405.12 216.95 411.34 215.12 418.46 236.78 425.02 235.05"/><line class="cls-5" x1="411.9" y1="239.06" x2="419.09" y2="236.62"/><line class="cls-5" x1="335" y1="206.75" x2="357.68" y2="199.45"/><polyline class="cls-5" points="356.68 199.78 365.57 228.6 358.39 230.71 350.04 201.91 341.8 204.56 351.46 232.78 353.46 241.78"/><line class="cls-5" x1="361.85" y1="216.28" x2="369.46" y2="214.78"/><line class="cls-5" x1="347.46" y1="198.78" x2="341.29" y2="174.08"/><line class="cls-5" x1="347.75" y1="171.7" x2="356.45" y2="199.36"/><polyline class="cls-5" points="355.13 169.23 358.32 179.03 363.46 194.78 365.15 199.78 369.29 214.44 372.69 226.5 381.03 254.59"/><polygon class="cls-5" points="365.46 176.78 369.46 189.78 362.77 192.68 358.46 178.78 365.46 176.78"/><line class="cls-5" x1="377" y1="188.66" x2="369.46" y2="189.78"/><line class="cls-5" x1="351.96" y1="185.28" x2="359.72" y2="183.3"/><line class="cls-5" x1="343.27" y1="182.01" x2="350.35" y2="179.98"/><polyline class="cls-5" points="374.96 157.28 386.33 192.5 396.96 189.28 394.96 182.28 384.46 185.78"/><polyline class="cls-5" points="381.99 138.44 388.96 136.28 387.05 128.21"/><line class="cls-5" x1="384.46" y1="145.78" x2="398.46" y2="140.78"/><polyline class="cls-5" points="387.25 156.81 394.96 154.28 394.96 152.28 400.78 150.95"/><polyline class="cls-5" points="310.95 254.33 327.96 248.28 334.16 268.52"/><line class="cls-5" x1="325.46" y1="236.78" x2="328.15" y2="248.89"/><polyline class="cls-4" points="478.96 17.29 508.96 118.28 514.96 141.28 527.96 184.28 534.96 207.28 544.96 241.28 551.96 265.29 555.96 276.29 571.96 330.29"/><polyline class="cls-4" points="409.96 16.29 464.96 197.28 471.96 224.28 482.96 266.29 512.96 363.29 522.46 387.79"/><polyline class="cls-4" points="496.48 400.29 565.46 365.79 572.46 352.79"/><polyline class="cls-4" points="299.96 388.29 295.96 375.29 309.96 385.29"/><path class="cls-4" d="M260,400.28l91-27c11.24-1,20.85-4.85,28-13l82-52,109.5-34.5"/><line class="cls-4" x1="420.96" y1="256.28" x2="430.96" y2="258.28"/><line class="cls-5" x1="312.46" y1="384.78" x2="282.11" y2="284.78"/><polyline class="cls-4" points="59.96 385.29 429.96 276.29 454.96 276.29 537.96 251.28 572.96 222.78"/><polyline class="cls-4" points="6.96 364.29 261.72 291.5 313.96 274.29"/><line class="cls-4" x1="0.96" y1="195.28" x2="60.96" y2="403.28"/><line class="cls-4" x1="41.96" y1="0.28" x2="167.96" y2="424.28"/><polyline class="cls-4" points="96.96 7.29 140.96 151.28 149.96 164.28 193.25 311.06"/><polyline class="cls-4" points="143.65 342.49 176.96 333.29 185.96 327.29 264.96 303.29"/><polyline class="cls-4" points="69.96 405.29 536.96 268.29 583.96 232.28"/><polyline class="cls-4" points="163.96 399.29 178.96 396.29 180.96 400.29 439.69 321.77"/><polyline class="cls-4" points="478.96 407.29 469.96 383.29 448.96 316.29 429.96 253.28 265.34 303.26"/><polyline class="cls-4" points="581.96 215.28 477.87 246.86 437.96 260.29 429.96 253.28"/><polyline class="cls-4" points="396.96 413.29 352.3 263.28 331.96 196.83"/><polyline class="cls-4" points="101.49 200.59 170.96 182.28 176.96 201.28 190.96 197.28 202.02 230.7 223.89 302.31"/><line class="cls-4" x1="176.12" y1="146.81" x2="191.56" y2="199.11"/><polyline class="cls-4" points="106.96 223.28 162.35 206.28 177.95 201"/><polyline class="cls-4" points="117.7 163.07 143.62 248.09 157.96 296.29 132.48 304.9"/><line class="cls-4" x1="112.7" y1="238.32" x2="196.66" y2="214.5"/><polyline class="cls-5" points="120.5 219.13 122.81 226.96 125.11 234.8"/><line class="cls-5" x1="149.96" y1="218.28" x2="122.96" y2="227.28"/><polyline class="cls-5" points="117.96 211.28 116.45 206.73 113.37 197.46"/><polyline class="cls-5" points="116.54 207.02 122.46 203.78 139.46 198.78 141.46 201.78 141.46 204.78 125.46 209.78 122.46 203.78"/><line class="cls-5" x1="124.83" y1="186.46" x2="145.96" y2="180.28"/><line class="cls-5" x1="132.81" y1="158.87" x2="141.84" y2="189.96"/><line class="cls-5" x1="129.46" y1="174.78" x2="132.48" y2="184.22"/><line class="cls-5" x1="161.07" y1="151" x2="171.18" y2="182.99"/><line class="cls-5" x1="153.8" y1="153.03" x2="163.6" y2="184.22"/><line class="cls-5" x1="163.93" y1="160.07" x2="178.54" y2="155.01"/><polyline class="cls-5" points="171.46 157.78 178.46 181.78 171.75 184.8"/><polyline class="cls-5" points="193.94 206.28 217.96 198.28 232.96 197.28"/><polyline class="cls-5" points="135.32 270.26 141.96 293.29 130.31 297.58"/><line class="cls-5" x1="128.46" y1="290.36" x2="182.56" y2="273.82"/><polyline class="cls-5" points="137.83 278.96 170.96 268.29 173.74 276.52 176.57 275.65 180.96 291.29 186.94 289.64"/><polyline class="cls-5" points="144.46 292.79 168.96 284.29 166.46 278.79"/><line class="cls-5" x1="215.96" y1="279.28" x2="157.65" y2="296.39"/><line class="cls-5" x1="240.96" y1="264.28" x2="228.15" y2="268.28"/><line class="cls-5" x1="196.46" y1="140.78" x2="213.96" y2="199.28"/><line class="cls-5" x1="227.77" y1="181.17" x2="210.23" y2="186.76"/><line class="cls-5" x1="223.59" y1="167.57" x2="206.11" y2="172.96"/><line class="cls-5" x1="219.94" y1="155.73" x2="202.44" y2="160.65"/><line class="cls-5" x1="192.96" y1="181.28" x2="207.38" y2="177.3"/><polyline class="cls-5" points="207.2 201.87 215.96 228.03 237.29 298.48"/><polyline class="cls-5" points="221.3 198.06 228.96 224.28 250.36 294.75"/><line class="cls-5" x1="56.01" y1="179.09" x2="81.96" y2="266.28"/><line class="cls-5" x1="11.53" y1="231.91" x2="102.84" y2="205.15"/><polyline class="cls-5" points="15.9 190.34 21.4 211.28 25.46 227.78"/><line class="cls-5" x1="98.62" y1="190.95" x2="21.66" y2="212.28"/><line class="cls-5" x1="31.63" y1="185.93" x2="36.46" y2="202.78"/><polyline class="cls-5" points="28.5 210.39 26.46 202.78 35.73 200.25"/><polyline class="cls-5" points="40.73 183.37 50.8 220.4 59.46 251.78 62.79 250.95 76.38 247.53"/><line class="cls-5" x1="48.87" y1="181.09" x2="55.92" y2="202.78"/><polyline class="cls-5" points="72.63 174.78 74.96 185.28 79.96 188.28 81.56 195.68"/><polyline class="cls-5" points="78.39 172.91 78.96 178.28 82.96 183.28"/><polyline class="cls-5" points="89.46 184.78 92.46 185.78 93.1 192.48 95.48 199.58 97.84 206.61"/><line class="cls-5" x1="74.46" y1="205.78" x2="95.46" y2="199.78"/><polyline class="cls-5" points="62.46 250.78 68.56 270.45 88.16 341.09"/><polyline class="cls-5" points="38.74 270.45 36.46 258.79 60.14 251.61"/><line class="cls-5" x1="58.46" y1="260.78" x2="60.96" y2="272.71"/><polyline class="cls-5" points="65.16 259.49 51.46 262.79 53.46 267.79 59.46 265.79"/><polyline class="cls-5" points="38.46 265.79 45.46 265.79 46.76 269.68 47.46 271.79 58.04 273.58"/><line class="cls-5" x1="53.46" y1="267.78" x2="46.84" y2="269.93"/><line class="cls-5" x1="38.46" y1="322.78" x2="79.83" y2="311.06"/><polyline class="cls-5" points="42.51 339.33 95.46 323.79 99.75 337.78"/><polyline class="cls-5" points="73.39 287.84 84.46 284.79 95.46 323.79"/><polyline class="cls-5" points="128.46 328.79 111.46 276.79 123.24 273.79 177.58 257.92"/><polyline class="cls-5" points="90.8 307.27 107.08 303.29 119.16 300.33"/><line class="cls-5" x1="115.73" y1="333.21" x2="107.46" y2="303.78"/><polyline class="cls-5" points="229.76 313.98 235.33 333.62 242.52 354.66 221.94 360.7 219.46 354.79 188.46 363.79 199.46 401.79"/><line class="cls-5" x1="183.78" y1="348.81" x2="188.46" y2="363.78"/><polyline class="cls-5" points="141.03 333.66 150.46 330.79 157.46 331.79 176.46 323.79 208.46 313.79 209.81 320.04 212.46 331.79 232.73 324.48 258.46 316.79 260.83 326.11 267.73 347.27 284.46 404.79"/><line class="cls-5" x1="167.96" y1="353.47" x2="174.24" y2="374.69"/><line class="cls-5" x1="152.03" y1="370.68" x2="171.16" y2="364.28"/><polyline class="cls-5" points="192.86 378.99 224.46 369.79 235.46 403.79"/><line class="cls-5" x1="194.34" y1="384.08" x2="226.05" y2="374.69"/><line class="cls-5" x1="203.43" y1="375.92" x2="204.71" y2="381.01"/><line class="cls-5" x1="195.78" y1="389.05" x2="206.46" y2="384.78"/><polyline class="cls-5" points="248.98 379.64 255.96 401.29 262.19 399.63 264.96 398.8 257.62 377.02"/><polyline class="cls-4" points="323.06 271.7 326.56 285.85 329.94 296.8 361.96 400.29"/><line class="cls-4" x1="359.28" y1="286.74" x2="329.96" y2="297.28"/><polyline class="cls-4" points="370.83 271.23 385.96 326.29 415.96 317.29 429.96 363.29 449.96 355.29 451.96 363.29 447.96 365.29"/><line class="cls-4" x1="415.67" y1="317.37" x2="411.62" y2="305.06"/><polyline class="cls-5" points="429.48 299.82 431.96 307.29 413.96 312.29"/><polyline class="cls-5" points="324.53 330.61 326.96 341.29 302.07 350.54"/><line class="cls-5" x1="306.79" y1="335.81" x2="314.51" y2="359.76"/><polyline class="cls-5" points="316.71 345.1 318.46 352.79 325.86 356.31"/><line class="cls-5" x1="312.84" y1="354.56" x2="318.68" y2="352.89"/><polyline class="cls-5" points="299.85 364.29 296.46 352.79 302.46 350.79"/><line class="cls-5" x1="275.35" y1="345.03" x2="282.88" y2="369.36"/><line class="cls-5" x1="194.22" y1="324.78" x2="199.96" y2="344.28"/><line class="cls-5" x1="199.17" y1="284.21" x2="205.78" y2="307.48"/><polyline class="cls-4" points="406.11 122.65 433.08 208.9 448.9 204.49 422.6 117.99 449.52 110.78 463.28 160.06 473.46 156.78 458.56 107.42 470.44 103.84 485.07 153.88 499.49 148.88 475.92 65.77 491.92 60.91"/><polyline class="cls-4" points="472.78 157.28 484.64 196.8 497.25 195.89 484.96 154.28 499.46 148.78 512.95 191.09 520.91 188.66 507.56 146.39 534.55 138.06 546.93 180.71 565.81 175.15 516.46 9.79"/><polyline class="cls-5" points="408.9 131.58 425.96 126.28 422.96 118.28 430.62 115.84 441.46 151.78 450.37 149.26"/><polyline class="cls-5" points="465.55 130.57 477.06 126.51 472.47 110.78 495.96 105.28 497.96 113.28 506.92 111.42 509.9 121.9 575.46 101.78"/><polyline class="cls-5" points="466.96 166.28 472.96 188.28 492.83 180.94 491.56 176.62 497.96 174.28 504.33 193.73 528.58 186.32 521.94 164.37 571.96 149.28"/><line class="cls-5" x1="543.76" y1="169.78" x2="567.96" y2="160.28"/><line class="cls-5" x1="553.56" y1="165.94" x2="556.85" y2="177.62"/><polyline class="cls-5" points="396.96 189.28 404.96 216.28 411.96 214.28 407.46 201.78 415.12 200.26"/><line class="cls-5" x1="398.59" y1="194.77" x2="412.46" y2="190.55"/><polyline class="cls-5" points="457.81 291.5 475.96 354.29 492.96 349.29 473.42 286.93 469.1 272.03"/><line class="cls-5" x1="440.96" y1="236.28" x2="460.21" y2="299.82"/><line class="cls-5" x1="433.46" y1="208.78" x2="442.06" y2="239.9"/><line class="cls-4" x1="236.96" y1="7.28" x2="271.72" y2="119.73"/><path class="cls-4" d="M114.14,63.51,171,48.28l22,67a32.42,32.42,0,0,0,16,10,31,31,0,0,0,13-21l-22-70c-5.52-5.1-13.11-6.29-19-6a31.72,31.72,0,0,0-10,20"/><polyline class="cls-4" points="181.52 80.43 377.96 22.29 399.96 22.29 422.96 8.29"/><path class="cls-6" d="M299,194.28a8.43,8.43,0,0,0-16.86,0,8.29,8.29,0,0,0,.76,3.49h0l.07.14c.1.21.21.42.33.62l6.37,12.07a1,1,0,0,0,1.8,0l6.37-12.07c.12-.2.23-.41.33-.62l.07-.14h0A8.44,8.44,0,0,0,299,194.28Zm-8.43,5.52a5.69,5.69,0,1,1,5.69-5.69A5.69,5.69,0,0,1,290.53,199.8Z"/><path class="cls-7" d="M290.44,199.8a5.69,5.69,0,0,1,0-11.38v-2.57a8.43,8.43,0,0,0-8.34,8.43,8.29,8.29,0,0,0,.76,3.49h0l.07.14c.1.21.21.42.33.62l6.37,12.07a1,1,0,0,0,.81.53Z"/></g><rect class="cls-8" x="6.96" y="203.28" width="564" height="84"/><rect class="cls-9" x="6.96" y="21.28" width="564" height="52" transform="translate(577.92 94.57) rotate(180)"/><g id="Layer_1-2" data-name="Layer 1-2"><g class="cls-10"><path class="cls-11" d="M238.59,231.82a7,7,0,0,0-5,2.08v-4.63h5.22V227.4h-5.21v-2.67h-2v14.14a7,7,0,0,0,7,6.92h7v-7a7,7,0,0,0-7-7m-2.8,11.1a5,5,0,0,1-1.31-6.9l.11-.16,1.2,1.21Zm-.15-8.11a5,5,0,0,1,7,1l.11.16h-5.86Zm3.71,9h-.76a5.15,5.15,0,0,1-1.3-.17v-5.05l2.06,2.07Zm-1-6.27h5a4.74,4.74,0,0,1,.17,1.3v.76h-3.15Zm5.22,6.27h-2.72v-2.71h2.72Z"/><path class="cls-12" d="M286.77,238.43A7.06,7.06,0,0,1,294,231c4.1,0,7.06,2.9,7.06,7.47,0,.3,0,.67,0,.95H288.86a5.26,5.26,0,0,0,9.68,2.07c.62.15,1.42.31,2.07.46A7,7,0,0,1,294,246c-4.1,0-7.28-3-7.28-7.55m12.25-1a4.87,4.87,0,0,0-5-4.47,5,5,0,0,0-5.18,4.47Z"/><path class="cls-12" d="M316.86,245.67H314.8V243.2a6.34,6.34,0,0,1-5.43,2.78,7.21,7.21,0,0,1-7.37-7.55,7.14,7.14,0,0,1,7.37-7.47,6.26,6.26,0,0,1,5.43,2.68v-2.37h2.06Zm-7.49-1.75a5.2,5.2,0,0,0,5.43-5.49,5.3,5.3,0,0,0-5.43-5.4,5.12,5.12,0,0,0-5.3,5.4,5.26,5.26,0,0,0,5.3,5.49"/><path class="cls-12" d="M319.57,241.54A3.07,3.07,0,0,0,323,244c1.85,0,3.05-.93,3.05-2.28,0-1-.55-1.86-2.07-2.22l-2-.47c-1.79-.43-4-1.32-3.64-4.68.31-2.07,2.35-3.43,4.69-3.43s4.16,1.08,4.54,3.74h-2a2.43,2.43,0,0,0-2.53-1.76,2.5,2.5,0,0,0-2.68,1.76c-.31,1.66,1.11,2.15,2.12,2.4l2,.46c2.71.65,3.64,2.22,3.64,4.2,0,2.49-2.29,4.22-5.28,4.22a4.8,4.8,0,0,1-5-4.44Z"/><path class="cls-12" d="M328.57,238.43a7.07,7.07,0,0,1,7.28-7.47c4.1,0,7.06,2.9,7.06,7.47,0,.31,0,.63,0,.95H330.67a5.26,5.26,0,0,0,9.68,2.07c.62.15,1.42.31,2.07.46a7,7,0,0,1-6.57,4.07c-4.1,0-7.28-3-7.28-7.55m12.24-1a4.86,4.86,0,0,0-5-4.47,5,5,0,0,0-5.18,4.47Z"/><path class="cls-12" d="M256.21,231a7.45,7.45,0,0,0-5.46,2.38v-8.59h-2v13.72a7.48,7.48,0,1,0,7.48-7.51m0,12.94a5.46,5.46,0,0,1-5.47-5.43v0a5.47,5.47,0,1,1,5.47,5.46h0"/><path class="cls-12" d="M272.21,231a7.45,7.45,0,0,0-5.46,2.38v-8.59h-2v13.72a7.48,7.48,0,1,0,7.48-7.51m0,12.94a5.47,5.47,0,0,1-5.46-5.43v0a5.47,5.47,0,1,1,5.46,5.46"/><path class="cls-12" d="M287.15,243.94v1.86h-3.08a3,3,0,0,1-2.17-.87,3.46,3.46,0,0,1-1.13-2.65V224.73h2V231h4.3v1.87h-4.3c0,4.22,0,8.56,0,8.8,0,1.82,1,2.27,1.84,2.31h2.54"/></g></g></g></g></svg>