<svg xmlns="http://www.w3.org/2000/svg" viewBox="0 0 760.14 145.06"><defs><style>.cls-1{fill:#73c69c;}.cls-2{fill:#fff;}</style></defs><title>LogoMain</title><g id="Layer_2" data-name="Layer 2"><g id="Layer_1-2" data-name="Layer 1"><path class="cls-1" d="M47.7,48.38a47.59,47.59,0,0,0-34,14.2V31H49.4V18.2H13.74V0H0V96.09c0,.16,0,.31,0,.48A47.7,47.7,0,0,0,47.7,143.8H95.41V96.09A47.71,47.71,0,0,0,47.7,48.38M28.58,124.14A33.91,33.91,0,0,1,20.36,76l8.22,8.23Zm-1-55.38A33.89,33.89,0,0,1,75.77,77h-40ZM52.9,130.05H47.7a34,34,0,0,1-8.91-1.19V94.41L52.9,108.52ZM46,87.19H80.48a33.89,33.89,0,0,1,1.19,8.9v5.21H60.12Zm35.66,42.86H63.1V111.5H81.67Z"/><path class="cls-2" d="M376.72,93.47c0-31.17,21.69-51,49.69-51s48.22,19.79,48.22,51c0,2.1,0,4.63-.21,6.53H391c2.52,19.16,17,31.16,35.37,31.16,13.27,0,24.64-6.32,30.75-17.06,4.21,1.06,9.68,2.11,14.1,3.16-8,17.48-25.05,27.8-44.85,27.8-28,0-49.69-20.43-49.69-51.59m83.59-6.53c-2.73-18.74-15.79-30.53-33.9-30.53-18.32,0-32.64,11.79-35.37,30.53Z"/><path class="cls-2" d="M582.26,143H568.15V126.11c-7.37,12.42-22.74,19-37.06,19-28,0-50.32-20.43-50.32-51.59s22.31-51,50.32-51c14.32,0,29.69,5.9,37.06,18.32V44.62h14.11Zm-51.17-12c20,0,37.06-13.27,37.06-37.48s-19.37-36.85-37.06-36.85c-20.42,0-36.22,14.32-36.22,36.85,0,21.9,15.8,37.48,36.22,37.48"/><path class="cls-2" d="M600.72,114.74c1.9,7.37,6.53,17,23.16,17,12.64,0,20.85-6.31,20.85-15.58,0-6.53-3.79-12.63-14.11-15.16l-13.69-3.16c-12.21-3-27.37-9-24.84-32,2.1-14.1,16-23.37,32-23.37,15.16,0,28.43,7.37,31,25.48H641.36c-1.68-7.58-8.84-12-17.27-12-9.47,0-17.26,5-18.32,12-2.1,11.37,7.59,14.74,14.53,16.42l13.48,3.16c18.53,4.42,24.85,15.16,24.85,28.64,0,17.06-15.58,28.85-36,28.85-16.63,0-33.48-11.16-34.32-30.32Z"/><path class="cls-2" d="M662.22,93.47c0-31.17,21.69-51,49.7-51s48.22,19.79,48.22,51a62.81,62.81,0,0,1-.22,6.53H676.54c2.53,19.16,17.06,31.16,35.38,31.16,13.26,0,24.63-6.32,30.74-17.06,4.21,1.06,9.68,2.11,14.11,3.16-8,17.48-25.06,27.8-44.85,27.8-28,0-49.7-20.43-49.7-51.59m83.6-6.53c-2.74-18.74-15.8-30.53-33.9-30.53-18.32,0-32.64,11.79-35.38,30.53Z"/><path class="cls-2" d="M168.07,42.42a50.89,50.89,0,0,0-37.33,16.26V0H117V93.73a51.07,51.07,0,1,0,51.07-51.31m0,88.4a37.38,37.38,0,0,1-37.33-37.09v-.24a37.33,37.33,0,1,1,37.33,37.33"/><path class="cls-2" d="M277.3,42.42A50.87,50.87,0,0,0,240,58.68V0H226.23V93.73A51.07,51.07,0,1,0,277.3,42.42m0,88.4A37.37,37.37,0,0,1,240,93.73v-.24a37.32,37.32,0,1,1,37.32,37.33"/><path class="cls-2" d="M379.37,131.1v12.76l-21.07,0a21.25,21.25,0,0,1-14.84-5.93c-4.83-4.3-7.6-10.5-7.68-18.13,0-4.7,0-12.93,0-17.74V0h13.74s0,19.49-.05,42.43h29.33V55.2H349.49c0,28.83-.07,58.5-.08,60.09-.08,12.48,6.51,15.53,12.56,15.78,1.85.07,17.4,0,17.4,0"/></g></g></svg>